<?xml version="1.0" encoding="utf-8"?>
<svg id="Icon_and_text" data-name="Icon and text" xmlns="http://www.w3.org/2000/svg" viewBox="0 0 185.03 242"><defs><style>.cls-1,.cls-2{fill:none;stroke-linecap:round;stroke-linejoin:round;stroke-width:6px;}.cls-1{stroke:#2a2a2a;}.cls-2{stroke:#006aac;}</style></defs><title>Big_Branding</title><path class="cls-1" d="M-629.91,1130c0-42.56,33.67-51.44,35.88-109.88,1.74-46-33.59-86-79.67-86.12a80,80,0,0,0-80.21,80v12l-17.82,35.62a12,12,0,0,0,6.94,16.76l10.88,3.62v30.1A20,20,0,0,0-732.1,1132l22.19-2v40" transform="translate(776 -931)"/><line class="cls-1" x1="146.08" y1="239" x2="146.08" y2="199"/><path class="cls-2" d="M-673.91,982a32,32,0,0,0-32,32c0,17.67,16,36,16,48h16" transform="translate(776 -931)"/><path class="cls-2" d="M-673.91,982a32,32,0,0,1,32,32c0,17.67-16,36-16,48h-16" transform="translate(776 -931)"/><line class="cls-2" x1="118.08" y1="147" x2="86.08" y2="147"/><line class="cls-2" x1="102.08" y1="27" x2="102.08" y2="35"/><line class="cls-2" x1="130.08" y1="34.5" x2="126.08" y2="41.43"/><line class="cls-2" x1="150.58" y1="55" x2="143.65" y2="59"/><line class="cls-2" x1="158.08" y1="83" x2="150.08" y2="83"/><line class="cls-2" x1="150.58" y1="111" x2="143.65" y2="107"/><line class="cls-2" x1="74.08" y1="34.5" x2="78.08" y2="41.43"/><line class="cls-2" x1="53.59" y1="55" x2="60.51" y2="59"/><line class="cls-2" x1="46.08" y1="83" x2="54.08" y2="83"/><line class="cls-2" x1="53.59" y1="111" x2="60.51" y2="107"/><line class="cls-2" x1="102" y1="179" x2="102.08" y2="239"/><line class="cls-2" x1="90" y1="163" x2="114" y2="163"/></svg>