<?xml version="1.0" encoding="utf-8"?>
<svg id="Icon_and_text" data-name="Icon and text" xmlns="http://www.w3.org/2000/svg" viewBox="0 0 238 254"><defs><style>.cls-1,.cls-2{fill:none;stroke-linecap:round;stroke-linejoin:round;stroke-width:6px;}.cls-1{stroke:#006aac;}.cls-2{stroke:#2a2a2a;}</style></defs><title>Big_Design</title><circle class="cls-1" cx="79" cy="79" r="20"/><circle class="cls-1" cx="43" cy="135" r="16"/><circle class="cls-1" cx="163" cy="207" r="16"/><circle class="cls-1" cx="195" cy="159" r="16"/><path class="cls-2" d="M-1413.17,1032.15c-10,17.13-20.43,32-27,37.92,0,0-7.49,5-17.91-1.08s-9.89-15.11-9.89-15.11c1.57-7.7,7.63-21.46,15.69-36.48" transform="translate(1579 -917)"/><path class="cls-2" d="M-1413.17,1032.15c4.37-7.47,8.67-15.37,12.54-23.15,17.6-35.33,20.6-44.09,31.16-70.66,3-7.51,1.36-13.23-4.4-16.58s-11.49-1.93-16.44,4.44c-17.51,22.52-23.54,29.52-45.06,62.56-6,9.25-11.87,19.19-16.94,28.64" transform="translate(1579 -917)"/><path class="cls-2" d="M-1449.42,1014.32s1.9,5.73,13.55,12.52,19.42,6.69,19.42,6.69" transform="translate(1579 -917)"/><path class="cls-2" d="M-1440,1072s16,52-48,52c-28,0-36-16-36-24,0-4.55,1.31-9.51,8-8,3.76.85,7.69,8,12,8,8,0,8-12,12-24,3.44-10.31,10.85-20,24-20" transform="translate(1579 -917)"/><path class="cls-2" d="M-1452.31,1017.4c-3-5.82-3.69-12.32-3.69-17.4,0-32,28-64-4-64-24,0-116,28-116,132,0,60,56,100,116,100,68,0,116-32,116-88,0-31.26-22.23-42.3-48-46.09" transform="translate(1579 -917)"/></svg>