<?xml version="1.0" encoding="utf-8"?>
<svg id="Icon_and_text" data-name="Icon and text" xmlns="http://www.w3.org/2000/svg" viewBox="0 0 238 214"><defs><style>.cls-1,.cls-2{fill:none;stroke-linecap:round;stroke-linejoin:round;stroke-width:6px;}.cls-1{stroke:#2a2a2a;}.cls-2{stroke:#006aac;}</style></defs><title>Big_Development</title><rect class="cls-1" x="3" y="3" width="232" height="176" rx="24"/><line class="cls-1" x1="3" y1="31" x2="235" y2="31"/><line class="cls-1" x1="3" y1="147" x2="235" y2="147"/><line class="cls-1" x1="127" y1="163" x2="111" y2="163"/><line class="cls-1" x1="23" y1="51" x2="47" y2="51"/><line class="cls-1" x1="67" y1="51" x2="87" y2="51"/><line class="cls-1" x1="111" y1="51" x2="131" y2="51"/><line class="cls-1" x1="151" y1="51" x2="171" y2="51"/><line class="cls-1" x1="191" y1="51" x2="211" y2="51"/><line class="cls-1" x1="211" y1="79" x2="171" y2="79"/><line class="cls-1" x1="210.91" y1="99" x2="170.91" y2="99"/><line class="cls-1" x1="210.91" y1="115" x2="170.91" y2="115"/><path class="cls-2" d="M-1161.91,1084l26.71-32.65a12,12,0,0,1,18.57,0l26.72,32.65" transform="translate(1184.91 -953)"/><path class="cls-2" d="M-1085.91,1068l15.51-15.51a12,12,0,0,1,17,0l15.52,15.51" transform="translate(1184.91 -953)"/><circle class="cls-2" cx="91" cy="79" r="12"/><line class="cls-1" x1="91" y1="179" x2="79" y2="211"/><line class="cls-1" x1="147" y1="179" x2="159" y2="211"/><line class="cls-1" x1="35" y1="211" x2="119" y2="211"/><line class="cls-1" x1="203" y1="211" x2="119" y2="211"/></svg>